<svg xmlns="http://www.w3.org/2000/svg" viewBox="0 0 16 16" width="16" height="16">
	<style>
		tspan { white-space:pre }
		.shp0 { fill: #282828 } 
	</style>
	<g id="head">
		<g id="Mitte Navi">
			<g id="Suche">
				<path id="Iocn Suche" class="shp0" d="M11.31 6.45C11.31 8.7 9.48 10.53 7.22 10.53C4.97 10.53 3.14 8.7 3.14 6.45C3.14 4.19 4.97 2.36 7.22 2.36C9.48 2.36 11.31 4.19 11.31 6.45ZM15.98 14.03C15.98 13.72 15.85 13.42 15.64 13.21L12.51 10.09C13.25 9.02 13.64 7.74 13.64 6.45C13.64 2.9 10.77 0.03 7.22 0.03C3.68 0.03 0.8 2.9 0.8 6.45C0.8 9.99 3.68 12.87 7.22 12.87C8.52 12.87 9.8 12.47 10.86 11.74L13.99 14.85C14.2 15.07 14.5 15.2 14.81 15.2C15.45 15.2 15.98 14.67 15.98 14.03Z" />
			</g>
		</g>
	</g>
</svg>